<svg xmlns="http://www.w3.org/2000/svg" viewBox="0 0 64 64"><g id="_08-Repair" data-name="08-Repair"><path d="M62.41,59.59A1.955,1.955,0,0,1,63,61a2.006,2.006,0,0,1-2,2H3a1.955,1.955,0,0,1-1.41-.59A1.955,1.955,0,0,1,1,61a2.006,2.006,0,0,1,2-2H61A1.955,1.955,0,0,1,62.41,59.59Z" style="fill:#966857"/><path d="M3,61H61a1.987,1.987,0,0,1,1.721,1A2,2,0,0,0,61,59H3a2.006,2.006,0,0,0-2,2,1.963,1.963,0,0,0,.279,1A2,2,0,0,1,3,61Z" style="fill:#966857"/><polygon points="56 29.24 32 16 8 29.24 3 32 3 27 11 22.59 19 18.17 32 11 61 27 61 32 56 29.24" style="fill:#ff936b"/><polygon points="32 13 8 26.24 3 29 3 32 8 29.24 32 16 56 29.24 61 32 61 29 56 26.24 32 13" style="fill:#ff7045"/><path d="M56,29.24V59H26V33H12V59H8V29.24L32,16ZM52,43V35a2.006,2.006,0,0,0-2-2H32a2.006,2.006,0,0,0-2,2v8a2.006,2.006,0,0,0,2,2H50A2.006,2.006,0,0,0,52,43Z" style="fill:#f7f7f7"/><polygon points="32 16 8 29.24 8 33.24 32 20 56 33.24 56 29.24 32 16" style="fill:#cfcfcf"/><path d="M52,39v4a2.006,2.006,0,0,1-2,2H43V39Z" style="fill:#f2bb88"/><path d="M52,35v4H43V33h7A2.006,2.006,0,0,1,52,35Z" style="fill:#f2d1a5"/><polygon points="43 39 43 45 39 45 39 39 39 33 43 33 43 39" style="fill:#b2876d"/><polygon points="43 39 43 45 41 45 41 39 41 33 43 33 43 39" style="fill:#966857"/><path d="M39,39v6H32a2.006,2.006,0,0,1-2-2V39Z" style="fill:#f2d1a5"/><path d="M39,33v6H30V35a2.006,2.006,0,0,1,2-2Z" style="fill:#f2bb88"/><rect x="12" y="33" width="14" height="26" style="fill:#f2d1a5"/><path d="M12,33v3h7a4,4,0,0,1,4,4V59h3V33Z" style="fill:#f2bb88"/><polygon points="20 9 20 13 19 13 11 13 10 13 10 9 20 9" style="fill:#ff936b"/><polygon points="20 11 20 13 19 13 11 13 10 13 10 11 20 11" style="fill:#ff7045"/><polygon points="19 13 19 18.17 11 22.59 11 13 19 13" style="fill:#b2876d"/><rect x="11" y="13" width="8" height="3" style="fill:#966857"/><path d="M23,59H21V52.721l-2.316-.772a1,1,0,0,1-.664-.753L17.18,47H12V45h6a1,1,0,0,1,.98.8l.887,4.431,2.449.816A1,1,0,0,1,23,52Z" style="fill:#9c9c9c"/><path d="M26,43H22a1,1,0,0,1-1-1V39.781l-3.243-.811A1,1,0,0,1,17,38V33h2v4.219l3.243.811A1,1,0,0,1,23,39v2h3Z" style="fill:#9c9c9c"/><path d="M56,56H50a1,1,0,0,1-1-1V52.5l-3.6-2.7A1,1,0,0,1,45,49V45h2v3.5l3.6,2.7a1,1,0,0,1,.4.8v2h5Z" style="fill:#9c9c9c"/><rect x="49" y="55" width="2" height="4" style="fill:#9c9c9c"/><rect x="35" y="45" width="2" height="4" style="fill:#9c9c9c"/><path d="M19.98,22.63,22.5,26H28v2H22a1.014,1.014,0,0,1-.8-.4l-2.99-3.99Z" style="fill:#9c9c9c"/><path d="M50,5a8.84,8.84,0,0,1,5,8,7.984,7.984,0,0,1-5,7.41V29H44V20.41A7.984,7.984,0,0,1,39,13a8.84,8.84,0,0,1,5-8v7a3,3,0,0,0,6,0Z" style="fill:#f7f7f7"/><path d="M63,5V29a4,4,0,0,1-4,4H48l-7,7V33H35a4,4,0,0,1-4-4V5a4,4,0,0,1,4-4H59A4,4,0,0,1,63,5Zm-8,8a8.84,8.84,0,0,0-5-8v7a3,3,0,0,1-6,0V5a8.84,8.84,0,0,0-5,8,7.984,7.984,0,0,0,5,7.41V29h6V20.41A7.984,7.984,0,0,0,55,13Z" style="fill:#65b1fc"/><path d="M44,29V20.41A7.984,7.984,0,0,1,39,13a9.333,9.333,0,0,1,2-5.65V5a8.84,8.84,0,0,0-5,8,7.984,7.984,0,0,0,5,7.41V29Z" style="fill:#4a98f7"/><path d="M47,5v7a2.982,2.982,0,0,1-1.5,2.585A2.982,2.982,0,0,0,50,12V7.35A7.462,7.462,0,0,0,47,5Z" style="fill:#4a98f7"/><path d="M59,1H56a4,4,0,0,1,4,4V29a4,4,0,0,1-4,4h3a4,4,0,0,0,4-4V5A4,4,0,0,0,59,1Z" style="fill:#4a98f7"/><path d="M61,58H57V35H55V54H51V52a1,1,0,0,0-.4-.8L47,48.5V46h3a3,3,0,0,0,3-3V35H51v8a1,1,0,0,1-1,1H32a1,1,0,0,1-1-1V35H29v8a3,3,0,0,0,3,3h3v3h2V46h8v3a1,1,0,0,0,.4.8L49,52.5V58H27V33a1,1,0,0,0-1-1H12a1,1,0,0,0-1,1V58H9V29.832l9.813-5.415L21.2,27.6a1,1,0,0,0,.8.4h6V26H22.5l-1.919-2.558,7.9-4.359-.966-1.751L4,30.306V27.59L28.483,14.083l-.966-1.751L20,16.479V14a1,1,0,0,0,1-1V9a1,1,0,0,0-1-1H10A1,1,0,0,0,9,9v4a1,1,0,0,0,1,1v8L2.517,26.125A1,1,0,0,0,2,27v5a1,1,0,0,0,1.483.875L7,30.935V58H3a3,3,0,0,0,0,6H61a3,3,0,0,0,0-6ZM11,10h8v2H11Zm1,4h6v3.582l-6,3.311ZM51,56h4v2H51ZM25,41H23V39a1,1,0,0,0-.757-.97L19,37.219V34h6Zm-8-7v4a1,1,0,0,0,.757.97L21,39.781V42a1,1,0,0,0,1,1h3V58H23V52a1,1,0,0,0-.684-.949l-2.449-.816L18.98,45.8A1,1,0,0,0,18,45H13V34ZM13,47h4.18l.84,4.2a1,1,0,0,0,.664.753L21,52.721V58H13ZM61,62H3a1,1,0,0,1,0-2H61a1,1,0,0,1,0,2Z"/><path d="M59,0H35a5.006,5.006,0,0,0-5,5V29a5.006,5.006,0,0,0,5,5h5v6a1,1,0,0,0,1.707.707L48.414,34H59a5.006,5.006,0,0,0,5-5V5A5.006,5.006,0,0,0,59,0Zm3,29a3,3,0,0,1-3,3H48a1,1,0,0,0-.707.293L42,37.586V33a1,1,0,0,0-1-1H35a3,3,0,0,1-3-3V5a3,3,0,0,1,3-3H59a3,3,0,0,1,3,3Z"/><path d="M50.375,4.073A1,1,0,0,0,49,5v7a2,2,0,0,1-4,0V5a1,1,0,0,0-1.375-.927A9.8,9.8,0,0,0,38,13a8.959,8.959,0,0,0,5,8.06V29a1,1,0,0,0,1,1h6a1,1,0,0,0,1-1V21.06A8.959,8.959,0,0,0,56,13,9.8,9.8,0,0,0,50.375,4.073Zm-.75,15.413a1,1,0,0,0-.625.927V28H48V20H46v8H45V20.413a1,1,0,0,0-.625-.927A6.972,6.972,0,0,1,40,13a8.211,8.211,0,0,1,3-6.269V12a4,4,0,0,0,8,0V6.731A8.211,8.211,0,0,1,54,13,6.972,6.972,0,0,1,49.625,19.486Z"/></g></svg>