<svg xmlns="http://www.w3.org/2000/svg" width="128" height="128" viewBox="0 0 128 128">
  <title>RULER</title>
  <g>
    <g>
      <polygon points="36.5 1.75 1.75 1.75 1.75 126.25 36.5 91.5 36.5 1.75" fill="#f3f5f9"/>
      <polygon points="36.5 91.5 1.75 126.25 106.234 126.25 106.234 91.5 36.5 91.5" fill="#4d5e80"/>
      <polygon points="21.063 118.25 39.813 99.5 98.234 99.5 98.234 118.25 21.063 118.25" fill="#3d4566"/>
      <rect x="15.125" y="10.659" width="21.375" height="7.219" fill="#e1e6f0"/>
      <rect x="15.125" y="30.79" width="21.375" height="7.219" fill="#e1e6f0"/>
      <rect x="15.125" y="50.92" width="21.375" height="7.219" fill="#e1e6f0"/>
      <rect x="15.125" y="71.05" width="21.375" height="7.219" fill="#e1e6f0"/>
      <g>
        <path d="M119.75,62.143a33.083,33.083,0,0,0-.289-4.383c-.083-.693-.2-1.38-.334-2.06a33.108,33.108,0,0,0-3.208-9.118c-.3-.578-.623-1.149-.963-1.707a33.6,33.6,0,0,0-6.263-7.585c-.455-.411-.924-.808-1.4-1.187a33.47,33.47,0,0,0-8.618-5.044c-.526-.211-1.065-.41-1.6-.59a33.087,33.087,0,0,0-9.645-1.745c-.372-.02-.744-.026-1.123-.026s-.751.006-1.123.026a33.1,33.1,0,0,0-9.388,1.662c-.712.231-1.418.494-2.1.77a33.27,33.27,0,0,0-8.214,4.819c-.59.462-1.161.949-1.713,1.45a34.123,34.123,0,0,0-6.032,7.321c-.392.636-.757,1.29-1.1,1.958A33.022,33.022,0,0,0,53.5,55.617c-.141.731-.263,1.469-.36,2.213a34.262,34.262,0,0,0-.276,4.313h-6.5V79.487h79.89V62.143Zm-15.452,0H68.312v-.02a17.993,17.993,0,1,1,35.986,0Z" fill="#f3f5f9"/>
        <path d="M87.428,28.724v7.032a1.123,1.123,0,1,1-2.246,0V28.724c.372-.02.744-.026,1.123-.026S87.056,28.7,87.428,28.724Z" fill="#e1e6f0"/>
        <path d="M76.667,36.071A1.133,1.133,0,0,1,75.23,35.4l-1.54-4.241c.686-.276,1.392-.539,2.1-.77l1.547,4.247A1.125,1.125,0,0,1,76.667,36.071Z" fill="#e1e6f0"/>
        <path d="M69.807,42.879a1.1,1.1,0,0,1-.718.263,1.114,1.114,0,0,1-.86-.4l-4.466-5.319c.552-.5,1.123-.988,1.713-1.45L69.949,41.3A1.12,1.12,0,0,1,69.807,42.879Z" fill="#e1e6f0"/>
        <path d="M61.677,48.327a1.114,1.114,0,0,1-.969.558,1.129,1.129,0,0,1-.564-.147L56.627,46.7c.347-.668.712-1.322,1.1-1.958l3.536,2.047A1.116,1.116,0,0,1,61.677,48.327Z" fill="#e1e6f0"/>
        <path d="M61.029,58.087a1.12,1.12,0,0,1-1.1.924c-.064,0-.128-.006-.2-.013l-6.59-1.168c.1-.744.219-1.482.36-2.213l6.622,1.167A1.127,1.127,0,0,1,61.029,58.087Z" fill="#e1e6f0"/>
        <path d="M95.943,36.071a1.134,1.134,0,0,0,1.438-.674l1.54-4.241c-.687-.276-1.393-.539-2.105-.77l-1.547,4.247A1.125,1.125,0,0,0,95.943,36.071Z" fill="#e1e6f0"/>
        <path d="M102.8,42.879a1.121,1.121,0,0,0,1.578-.135l4.466-5.319c-.551-.5-1.122-.988-1.713-1.45L102.662,41.3A1.119,1.119,0,0,0,102.8,42.879Z" fill="#e1e6f0"/>
        <path d="M110.933,48.327a1.114,1.114,0,0,0,.969.558,1.135,1.135,0,0,0,.565-.147l3.516-2.034c-.346-.668-.712-1.322-1.1-1.958l-3.535,2.047A1.117,1.117,0,0,0,110.933,48.327Z" fill="#e1e6f0"/>
        <path d="M111.581,58.087a1.12,1.12,0,0,0,1.1.924c.064,0,.128-.006.2-.013l6.59-1.168c-.1-.744-.218-1.482-.36-2.213l-6.622,1.167A1.128,1.128,0,0,0,111.581,58.087Z" fill="#e1e6f0"/>
        <path d="M54.837,73.135v6.352H52.591V73.135a1.123,1.123,0,1,1,2.246,0Z" fill="#e1e6f0"/>
        <path d="M62.986,74.655v4.832H60.74V74.655a1.123,1.123,0,1,1,2.246,0Z" fill="#e1e6f0"/>
        <path d="M71.129,73.135v6.352H68.883V73.135a1.123,1.123,0,1,1,2.246,0Z" fill="#e1e6f0"/>
        <path d="M79.279,74.655v4.832H77.033V74.655a1.123,1.123,0,1,1,2.246,0Z" fill="#e1e6f0"/>
        <path d="M87.428,73.135v6.352H85.182V73.135a1.123,1.123,0,1,1,2.246,0Z" fill="#e1e6f0"/>
        <path d="M95.577,74.655v4.832H93.332V74.655a1.123,1.123,0,1,1,2.245,0Z" fill="#e1e6f0"/>
        <path d="M103.727,73.135v6.352h-2.246V73.135a1.123,1.123,0,0,1,2.246,0Z" fill="#e1e6f0"/>
        <path d="M111.87,74.655v4.832h-2.246V74.655a1.123,1.123,0,0,1,2.246,0Z" fill="#e1e6f0"/>
        <path d="M120.019,73.135v6.352h-2.246V73.135a1.123,1.123,0,0,1,2.246,0Z" fill="#e1e6f0"/>
      </g>
    </g>
    <g>
      <path d="M106.234,89.75H38.25v-88A1.749,1.749,0,0,0,36.5,0H1.75A1.749,1.749,0,0,0,0,1.75v124.5c0,.028.011.053.012.08a1.787,1.787,0,0,0,.039.261,1.856,1.856,0,0,0,.061.247c.01.027.01.055.021.082a1.662,1.662,0,0,0,.088.146,1.616,1.616,0,0,0,.134.222,1.678,1.678,0,0,0,.169.188,1.678,1.678,0,0,0,.188.169,1.616,1.616,0,0,0,.222.134,1.662,1.662,0,0,0,.146.088c.035.014.071.02.106.032s.072.023.109.033A1.771,1.771,0,0,0,1.75,128H106.234a1.749,1.749,0,0,0,1.75-1.75V91.5A1.749,1.749,0,0,0,106.234,89.75ZM34.75,76.52H16.875V72.8H34.75Zm0-20.131H16.875V52.67H34.75Zm0-20.131H16.875V32.539H34.75Zm0-20.13H16.875V12.409H34.75ZM3.5,3.5H34.75V8.909H15.125a1.749,1.749,0,0,0-1.75,1.75v7.219a1.749,1.749,0,0,0,1.75,1.75H34.75v9.411H15.125a1.749,1.749,0,0,0-1.75,1.75v7.219a1.749,1.749,0,0,0,1.75,1.75H34.75V49.17H15.125a1.749,1.749,0,0,0-1.75,1.75v7.219a1.75,1.75,0,0,0,1.75,1.75H34.75V69.3H15.125a1.749,1.749,0,0,0-1.75,1.75V78.27a1.75,1.75,0,0,0,1.75,1.75H34.75V90.775L3.5,122.025Zm100.984,121H5.975l31.25-31.25h67.259Z"/>
      <path d="M52.591,116.5H45.564a1.75,1.75,0,1,0,0,3.5h7.027a1.75,1.75,0,1,0,0-3.5Z"/>
      <path d="M19.446,118.92A1.752,1.752,0,0,0,21.063,120H33.125a1.75,1.75,0,0,0,0-3.5H25.288l15.25-15.25H96.484V116.5H65.03a1.75,1.75,0,0,0,0,3.5h33.2a1.749,1.749,0,0,0,1.75-1.75V99.5a1.749,1.749,0,0,0-1.75-1.75H39.813a1.752,1.752,0,0,0-1.237.513l-18.75,18.75A1.75,1.75,0,0,0,19.446,118.92Z"/>
      <path d="M126.25,60.394h-4.79a35.2,35.2,0,0,0-70.312,0H46.36a1.75,1.75,0,0,0-1.75,1.75V79.49a1.75,1.75,0,0,0,1.75,1.75h79.89A1.749,1.749,0,0,0,128,79.49V62.144A1.749,1.749,0,0,0,126.25,60.394ZM124.5,77.74h-3.853V73.133a1.75,1.75,0,0,0-3.5,0V77.74H112.5V74.657a1.75,1.75,0,0,0-3.5,0V77.74h-4.648V73.133a1.75,1.75,0,1,0-3.5,0V77.74H96.2V74.657a1.75,1.75,0,1,0-3.5,0V77.74H88.054V73.133a1.75,1.75,0,0,0-3.5,0V77.74H79.905V74.657a1.75,1.75,0,0,0-3.5,0V77.74H71.758V73.133a1.75,1.75,0,0,0-3.5,0V77.74H63.609V74.657a1.75,1.75,0,0,0-3.5,0V77.74H55.461V73.133a1.75,1.75,0,0,0-3.5,0V77.74H48.11V63.894h4.745a1.75,1.75,0,0,0,1.75-1.75,31.735,31.735,0,0,1,.183-3.381l4.83.851a1.775,1.775,0,0,0,.306.027,1.75,1.75,0,0,0,.3-3.474l-4.87-.858a31.463,31.463,0,0,1,2.515-7.16l1.959,1.13a1.73,1.73,0,0,0,.873.235,1.75,1.75,0,0,0,.877-3.266L59.6,45.1a31.943,31.943,0,0,1,4.851-5.885l3.3,3.929a1.75,1.75,0,0,0,2.682-2.25l-3.318-3.956a31.694,31.694,0,0,1,6.6-3.881l.929,2.553a1.75,1.75,0,1,0,3.289-1.2l-.937-2.574A31.547,31.547,0,0,1,84.554,30.5v5.259a1.75,1.75,0,0,0,3.5,0V30.5a31.53,31.53,0,0,1,7.561,1.347l-.936,2.574a1.75,1.75,0,1,0,3.289,1.2L98.9,33.06a31.694,31.694,0,0,1,6.6,3.881L102.183,40.9a1.75,1.75,0,0,0,2.681,2.25l3.3-3.929a31.97,31.97,0,0,1,4.851,5.884l-1.985,1.146a1.75,1.75,0,0,0,.877,3.266,1.73,1.73,0,0,0,.873-.235l1.96-1.131a31.442,31.442,0,0,1,2.516,7.161l-4.87.858a1.75,1.75,0,1,0,.607,3.447l4.831-.851A32,32,0,0,1,118,62.144a1.75,1.75,0,0,0,1.75,1.75H124.5Z"/>
      <path d="M86.3,42.378a19.66,19.66,0,0,0-15.45,7.448,1.751,1.751,0,0,0,2.739,2.182,16.245,16.245,0,0,1,28.865,8.386H68.577a1.691,1.691,0,0,0-.268-.021,1.749,1.749,0,0,0-1.75,1.75c0,.028,0,.061,0,.092a1.753,1.753,0,0,0,1.75,1.679H104.3a1.75,1.75,0,0,0,1.748-1.677c0-.032,0-.066,0-.094A19.768,19.768,0,0,0,86.3,42.378Z"/>
    </g>
  </g>
</svg>
